<svg id="Layer_1" data-name="Layer 1" xmlns="http://www.w3.org/2000/svg" viewBox="0 0 427.32 178.49"><defs><style>.cls-1,.cls-2,.cls-5{fill:#27233a;}.cls-2{stroke:#787a9b;}.cls-2,.cls-3,.cls-5{stroke-linecap:round;stroke-linejoin:round;stroke-width:0.75px;}.cls-3{fill:none;}.cls-3,.cls-5{stroke:#99885f;}.cls-4{fill:#505168;}.cls-6{fill:#99885f;}.cls-7{fill:#787a9b;}</style></defs><title>SpoilerFreeWikiProduction</title><polygon class="cls-1" points="0 0 427.32 0 427.32 178.49 0 178.49 0 0"/><path class="cls-1" d="M87.48,105.81c.07.14.07.21.14.28Zm1.15,1.72c.07.08.07.15.15.22Zm.22.22a.9.9,0,0,1,.21.29Zm44.64.29a.9.9,0,0,1,.21-.29Zm.21-.29a.78.78,0,0,0,.22-.29Zm3.39-7.78c.07-.28.14-.64.21-.93Zm.21-1c.08-.22.08-.44.15-.65Zm.65-5h0c12.53,2.16,12.24-20.45,3.89-18.58l-4.46-14.11-9.72-17.86L86.18,51.59,81.29,76.14l-.65-.29C72.29,74,72.07,96.16,84.53,94h0l.07.21v.51h0l.07.21v.51h0l.07.21v.22l.08.29h0v.43l.07.29h0v.36l.07.07v.29l.07.29V98l.07.22v.36l.08.14V99h0l.07.36.07.14v.22h0l.07.21v.15l.07.14v.22l.08.21v.07l.07.15v.21h.07v.29h0l.07.15v.14l.07.14h0l.08.22v.07h0l.07.22.07.14.07.29h0l.07.29.08.07v.07l.07.22h0l.07.21h0l.07.15v.07l.07.14.08.08v.07l.07.21v.08l.14.21v.07h.07l.08.22v.07l.14.29h0l.07.07.07.22.08.07h0l.14.22h0c.07.14.07.21.14.28v.08l.22.21h0v.07l.14.22.08.07.14.22h0V107l.14.14.08.08.21.21h0v.07c.07.08.07.15.15.22h.07a.9.9,0,0,1,.21.29c5.62,6.19,13.54,9.36,22.18,12.09,8.71-2.73,16.56-5.9,22.25-12.09a.9.9,0,0,1,.21-.29h0a.78.78,0,0,0,.22-.29h0c.07-.07.14-.14.14-.21l.08-.08.14-.14.07-.07h0l.15-.22.07-.07.14-.22v-.07h0l.15-.21v-.08l.14-.21.07-.07h0l.15-.29h0l.14-.29h0l.14-.29h0l.15-.29h0v-.07l.14-.21v-.08l.15-.28h0l.07-.22v-.07l.07-.15h0l.07-.21.15-.29V103l.07-.29h.07l.07-.29v-.07l.07-.22V102l.15-.29h0l.07-.29h0v-.07l.07-.21v-.08l.07-.14v-.29l.08-.21v-.08h0l.07-.28h0V100c.07-.28.14-.64.21-.93V99c.08-.22.08-.44.15-.65V98.1l.07-.21v-.36l.07-.15v-.21l.07-.29h0v-.36l.08-.36h0l.07-.72h0l.07-.36V94.5l.07-.14v-.29h.72Z" transform="translate(0.29 -0.33)"/><path id="_1" data-name="1" class="cls-2" d="M87.48,105.81c.07.14.07.21.14.28m1,1.44c.07.08.07.15.15.22m.07,0a.9.9,0,0,1,.21.29m44.43,0a.9.9,0,0,1,.21-.29m0,0a.78.78,0,0,0,.22-.29m3.17-7.49c.07-.28.14-.64.21-.93m0-.07c.08-.22.08-.44.15-.65M138,94h0c12.53,2.16,12.24-20.45,3.89-18.58l-4.46-14.11-9.72-17.86L86.18,51.59,81.29,76.14l-.65-.29C72.29,74,72.07,96.16,84.53,94h0l.07.21v.51h0l.07.21v.51h0l.07.21v.22l.08.29h0v.43l.07.29h0v.36l.07.07v.29l.07.29V98l.07.22v.36l.08.14V99h0l.07.36.07.14v.22h0l.07.21v.15l.07.14v.22l.08.21v.07l.07.15v.21h.07v.29h0l.07.15v.14l.07.14h0l.08.22v.07h0l.07.22.07.14.07.29h0l.07.29.08.07v.07l.07.22h0l.07.21h0l.07.15v.07l.07.14.08.08v.07l.07.21v.08l.14.21v.07h.07l.08.22v.07l.14.29h0l.07.07.07.22.08.07h0l.14.22h0c.07.14.07.21.14.28v.08l.22.21h0v.07l.14.22.08.07.14.22h0V107l.14.14.08.08.21.21h0v.07c.07.08.07.15.15.22h.07a.9.9,0,0,1,.21.29c5.62,6.19,13.54,9.36,22.18,12.09,8.71-2.73,16.56-5.9,22.25-12.09a.9.9,0,0,1,.21-.29h0a.78.78,0,0,0,.22-.29h0c.07-.07.14-.14.14-.21l.08-.08.14-.14.07-.07h0l.15-.22.07-.07.14-.22v-.07h0l.15-.21v-.08l.14-.21.07-.07h0l.15-.29h0l.14-.29h0l.14-.29h0l.15-.29h0v-.07l.14-.21v-.08l.15-.28h0l.07-.22v-.07l.07-.15h0l.07-.21.15-.29V103l.07-.29h.07l.07-.29v-.07l.07-.22V102l.15-.29h0l.07-.29h0v-.07l.07-.21v-.08l.07-.14v-.29l.08-.21v-.08h0l.07-.28h0V100c.07-.28.14-.64.21-.93V99c.08-.22.08-.44.15-.65V98.1l.07-.21v-.36l.07-.15v-.21l.07-.29h0v-.36l.08-.36h0l.07-.72h0l.07-.36V94.5l.07-.14v-.29h.72Z" transform="translate(0.29 -0.33)"/><path class="cls-2" d="M104.26,49.43C94.1,51,90,55.91,85.82,65.27c-1.72,3.89-2.16,13.82-2.52,17.35-2.08.65-1.72-6.77-2.66-6.77-.29,0-1.51-.5-2.23.08-.07-7.85-.36-21.82,7.49-28.8-7.2,2.37-6.05,4.68-10.16,9.43,2-11,8.07-17.86,17.79-20.59,4.75-6.2-2.67-6.92-9.79-9.36,12.74-.87,19.58.79,18.93,5.25-.36-10.94,8.21-14.61,13.39-16.13-6.26,5.19-8,10.44-6.84,16.35,3-5.26,5.19-6.55,12.17-6,4.39.36,7.71-1.87,9.58-5.69-.07.15,2.73,10.8-7.71,12.24,13.11.08,20.67,11.31,22.9,17.64-2.95-2.66-6-5-10.15-4.46,6.84,1,8.71,24,7.7,30.1-1.37-.29-5-.94-5,4-.5-8.57.51-19.66-7.56-26.21,2.52,5.4.94,8,0,10.51.87-9-3.67-16-13.1-18.65,3.89,3.46,4.32,10.16,1.44,14.91C117.22,50.22,110,48.49,104.26,49.43Z" transform="translate(0.29 -0.33)"/><path class="cls-2" d="M96.91,68.08a10.77,10.77,0,1,1-10.8,10.8A10.77,10.77,0,0,1,96.91,68.08Z" transform="translate(0.29 -0.33)"/><path class="cls-2" d="M101.88,69.3a11.17,11.17,0,0,1,5,5.55L96.19,89.61a10.81,10.81,0,0,1-6.84-3.1Z" transform="translate(0.29 -0.33)"/><path class="cls-2" d="M125.64,68.08a10.77,10.77,0,1,1-10.8,10.8A10.77,10.77,0,0,1,125.64,68.08Z" transform="translate(0.29 -0.33)"/><path class="cls-2" d="M129.46,68.8A10.68,10.68,0,0,1,135,73.62L123.48,89.39a11,11,0,0,1-6.26-3.74Z" transform="translate(0.29 -0.33)"/><path class="cls-2" d="M111.24,85.07A20.26,20.26,0,0,1,106,94.43c.36,3.31,7.2,4,10.59,1.51" transform="translate(0.29 -0.33)"/><path class="cls-2" d="M103.61,106.38c4,3.1,9.57,3.24,15.33,0" transform="translate(0.29 -0.33)"/><polyline class="cls-3" points="105.98 49.32 103.18 55.58 107.42 57.02 104.11 64.08"/><path class="cls-2" d="M84.74,94c-12.67,2.37-12.52-20-4.1-18.15" transform="translate(0.29 -0.33)"/><path class="cls-2" d="M137.74,94c12.74,2.37,12.52-20,4.1-18.15" transform="translate(0.29 -0.33)"/><line class="cls-2" x1="108.29" y1="77.33" x2="114.91" y2="77.33"/><path class="cls-4" d="M84,78.3a.64.64,0,0,1-.64-.65A.63.63,0,0,1,84,77Zm2,0H84V77h2ZM86,77a.64.64,0,0,1,.65.64.65.65,0,0,1-.65.65Z" transform="translate(0.29 -0.33)"/><path class="cls-4" d="M136.66,78.3a.65.65,0,0,1-.65-.65.64.64,0,0,1,.65-.64Zm1.94,0h-1.94V77h1.94Zm0-1.29a.64.64,0,0,1,.65.64.65.65,0,0,1-.65.65Z" transform="translate(0.29 -0.33)"/><g id="_2584386149440" data-name=" 2584386149440"><path class="cls-5" d="M148.54,57.78c.93,8.28-.44,15.91,1,23.19.94,4.89,1.08,6.91-.21,11.59-.65,2.3-4,6.77-7.71,12.24-2.44,3.53-7.92,7.77-7.56,1.94A118.91,118.91,0,0,1,136.8,90h-.07c.93-7.56,0-15.77,2.81-22.83a2.09,2.09,0,0,1,1.72-1.36c.51-3,1-5.91,1.44-8.86C143.28,53.53,148.18,54.69,148.54,57.78Z" transform="translate(0.29 -0.33)"/><path class="cls-5" d="M136.73,90h.07a118.91,118.91,0,0,0-2.74,16.7c-.36,5.83,5.12,1.59,7.56-1.94,3.75-5.47,7.06-9.94,7.71-12.24,1.29-4.68,1.15-6.7.21-11.59-1.44-7.28-.07-14.91-1-23.19-.36-3.09-5.26-4.25-5.84-.79-.43,2.95-.93,5.9-1.44,8.86a2.09,2.09,0,0,0-1.72,1.36C136.73,74.27,137.66,82.48,136.73,90Z" transform="translate(0.29 -0.33)"/><path class="cls-3" d="M143.35,88.89a31.63,31.63,0,0,0,.94-13.4c-.58-2.88.29-5.32-.29-8.28-.43-1.87-3.74-1.87-4.46,0-2.81,7.06-1.88,15.27-2.81,22.83" transform="translate(0.29 -0.33)"/></g><g id="_2584386146496" data-name=" 2584386146496"><path class="cls-5" d="M73.08,57.78c-.94,8.28.43,15.91-1,23.19-.93,4.89-1.08,6.91.29,11.59.65,2.3,3.89,6.77,7.63,12.24,2.45,3.53,8,7.77,7.63,1.94A109.65,109.65,0,0,0,84.82,90H85c-1-7.56-.07-15.77-2.81-22.83a2.22,2.22,0,0,0-1.73-1.36L78.91,57C78.34,53.53,73.44,54.69,73.08,57.78Z" transform="translate(0.29 -0.33)"/><path class="cls-5" d="M85,90h-.14a109.65,109.65,0,0,1,2.8,16.7c.36,5.83-5.18,1.59-7.63-1.94-3.74-5.47-7-9.94-7.63-12.24C71,87.88,71.14,85.86,72.07,81c1.44-7.28.07-14.91,1-23.19.36-3.09,5.26-4.25,5.83-.79l1.51,8.86a2.22,2.22,0,0,1,1.73,1.36C84.89,74.27,84,82.48,85,90Z" transform="translate(0.29 -0.33)"/><path class="cls-3" d="M78.26,88.89c-.93-4-1.8-8.57-.93-13.4.57-2.88-.29-5.32.36-8.28.36-1.87,3.74-1.87,4.46,0C84.89,74.27,84,82.48,85,90" transform="translate(0.29 -0.33)"/></g><path class="cls-1" d="M193.82,105.81c.08.14.08.21.15.28Zm1.16,1.72c.07.08.14.15.14.22Zm.21.22a.91.91,0,0,1,.22.29Zm44.64.29a.91.91,0,0,1,.22-.29Zm.22-.29a.9.9,0,0,0,.21-.29ZM243.5,100c.08-.28.08-.64.15-.93Zm.15-1c.07-.22.07-.44.14-.65Zm.65-5h0c12.52,2.16,14.25-21.31,5.9-19.44L236,42.59l-43.49,9-4.9,24.55-.65-.29C178.63,74,178.42,96.16,190.87,94h0l.07.21v.51h0l.08.21v.29l.07.22h0v.43l.07.29h0v.36l.07.07v.29h0v.21l.07.15v.36l.08.29V98l.07.22v.28l.07.08V99h.07v.36l.07.14v.22h0l.08.21v.15l.07.14v.22l.07.21v.07l.07.15.07.21h0v.29h.08v.15l.07.14v.14h0l.07.22v.07h0l.07.22.07.14.08.29h0l.07.29.07.07v.07l.07.22h0l.07.21h0l.08.15v.07l.07.14.07.08v.07l.07.21.07.08.08.21v.07h.07l.07.22.07.07.07.29h.08v.07l.07.22.07.07h0l.14.22h0c.08.14.08.21.15.28v.08l.21.21h0v.07l.15.22.07.07.14.22h0V107l.15.14.07.08.22.21h0v.07c.07.08.14.15.14.22h.07a.91.91,0,0,1,.22.29c5.61,6.19,13.53,9.36,22.17,12.09,8.72-2.73,16.56-5.9,22.25-12.09a.91.91,0,0,1,.22-.29h0a.9.9,0,0,0,.21-.29h0l.22-.21v-.08l.14-.14.08-.07h0l.14-.22.07-.07.15-.22v-.07h0l.14-.21.07-.08.07-.21.08-.07h0l.14-.29h0l.14-.29h0l.15-.29h0l.14-.29h0v-.07l.15-.21v-.08l.14-.28h0l.07-.22.07-.07v-.15h0l.08-.21.14-.29V103l.14-.29h0l.08-.29v-.07l.07-.22v-.07L243,102l.07-.29h0l.07-.29h0v-.07l.08-.21v-.08l.07-.14v-.22l.07-.07v-.29h0l.07-.28h0l.07-.08c.08-.28.08-.64.15-.93V99c.07-.22.07-.44.14-.65V98.1l.07-.21v-.36l.08-.15v-.21l.07-.29h0v-.36l.07-.36h0l.07-.72h0l.07-.36v-.36l.08-.22v-.43H245Z" transform="translate(0.29 -0.33)"/><path id="_1-2" data-name="1" class="cls-2" d="M193.82,105.81c.08.14.08.21.15.28m1,1.44c.07.08.14.15.14.22m.07,0a.91.91,0,0,1,.22.29m44.42,0a.91.91,0,0,1,.22-.29m0,0a.9.9,0,0,0,.21-.29M243.5,100c.08-.28.08-.64.15-.93m0-.07c.07-.22.07-.44.14-.65M244.3,94h0c12.52,2.16,14.25-21.31,5.9-19.44L236,42.59l-43.49,9-4.9,24.55-.65-.29C178.63,74,178.42,96.16,190.87,94h0l.07.21v.51h0l.08.21v.29l.07.22h0v.43l.07.29h0v.36l.07.07v.29h0v.21l.07.15v.36l.08.29V98l.07.22v.28l.07.08V99h.07v.36l.07.14v.22h0l.08.21v.15l.07.14v.22l.07.21v.07l.07.15.07.21h0v.29h.08v.15l.07.14v.14h0l.07.22v.07h0l.07.22.07.14.08.29h0l.07.29.07.07v.07l.07.22h0l.07.21h0l.08.15v.07l.07.14.07.08v.07l.07.21.07.08.08.21v.07h.07l.07.22.07.07.07.29h.08v.07l.07.22.07.07h0l.14.22h0c.08.14.08.21.15.28v.08l.21.21h0v.07l.15.22.07.07.14.22h0V107l.15.14.07.08.22.21h0v.07c.07.08.14.15.14.22h.07a.91.91,0,0,1,.22.29c5.61,6.19,13.53,9.36,22.17,12.09,8.72-2.73,16.56-5.9,22.25-12.09a.91.91,0,0,1,.22-.29h0a.9.9,0,0,0,.21-.29h0l.22-.21v-.08l.14-.14.08-.07h0l.14-.22.07-.07.15-.22v-.07h0l.14-.21.07-.08.07-.21.08-.07h0l.14-.29h0l.14-.29h0l.15-.29h0l.14-.29h0v-.07l.15-.21v-.08l.14-.28h0l.07-.22.07-.07v-.15h0l.08-.21.14-.29V103l.14-.29h0l.08-.29v-.07l.07-.22v-.07L243,102l.07-.29h0l.07-.29h0v-.07l.08-.21v-.08l.07-.14v-.22l.07-.07v-.29h0l.07-.28h0l.07-.08c.08-.28.08-.64.15-.93V99c.07-.22.07-.44.14-.65V98.1l.07-.21v-.36l.08-.15v-.21l.07-.29h0v-.36l.07-.36h0l.07-.72h0l.07-.36v-.36l.08-.22v-.43H245Z" transform="translate(0.29 -0.33)"/><path class="cls-2" d="M210.67,49.43c-10.22,1.58-14.33,6.48-18.5,15.84-1.73,3.89-2.16,13.82-2.52,17.35-2.09.65-1.59-.57-2.52-.57-.36,0-1.51-.51-2.23,0-.15-7.78-.51-27.94,7.34-34.92-7.2,2.37-6.05,4.68-10.15,9.43,1.94-11,8.06-17.86,17.78-20.59,4.75-6.2-2.66-6.92-9.79-9.36,12.82-.87,19.58.79,18.94,5.25-.36-10.94,8.2-14.61,13.39-16.13-6.27,5.19-8,10.44-6.84,16.35,3-5.26,5.25-6.55,12.17-6,4.39.36,7.7-1.87,9.57-5.69-.07.15,2.81,10.8-7.7,12.24,13.17.08,20.73,11.31,22.89,17.64-2.95-2.66-5.9-5-10.15-4.46,6.84,1,8.79,24,7.71,30.1-1.08,7.34-4.68,4.32-5,4-.51-8.57.5-19.66-7.56-26.21,2.52,5.4.93,8,0,10.51.86-9-3.68-16-13-18.65,3.82,3.46,4.25,10.16,1.37,14.91C223.56,50.22,216.36,48.49,210.67,49.43Z" transform="translate(0.29 -0.33)"/><path class="cls-2" d="M203.26,68.08a10.77,10.77,0,1,1-10.73,10.8A10.79,10.79,0,0,1,203.26,68.08Z" transform="translate(0.29 -0.33)"/><path class="cls-2" d="M208.22,69.3a11.08,11.08,0,0,1,5,5.55L202.54,89.61a10.79,10.79,0,0,1-6.84-3.1Z" transform="translate(0.29 -0.33)"/><path class="cls-2" d="M232,68.08a10.77,10.77,0,1,1-10.8,10.8A10.77,10.77,0,0,1,232,68.08Z" transform="translate(0.29 -0.33)"/><path class="cls-2" d="M235.8,68.8a10.64,10.64,0,0,1,5.54,4.82L229.82,89.39a11,11,0,0,1-6.26-3.74Z" transform="translate(0.29 -0.33)"/><path class="cls-2" d="M217.58,85.07a20.33,20.33,0,0,1-5.25,9.36c.36,3.31,7.2,4,10.58,1.51" transform="translate(0.29 -0.33)"/><path class="cls-2" d="M210,106.38c4,3.1,9.58,3.24,15.34,0" transform="translate(0.29 -0.33)"/><polyline class="cls-3" points="212.33 49.32 209.52 55.58 213.77 57.02 210.46 64.08"/><path class="cls-2" d="M191.09,94c-12.67,2.37-15.84-19.3-7.42-17.43" transform="translate(0.29 -0.33)"/><path class="cls-2" d="M244.15,94c12.67,2.37,15-17.43,6.55-15.55" transform="translate(0.29 -0.33)"/><line class="cls-2" x1="214.63" y1="77.33" x2="221.26" y2="77.33"/><path class="cls-4" d="M190.37,78.3a.65.65,0,0,1-.65-.65.64.64,0,0,1,.65-.64Zm1.94,0h-1.94V77h1.94Zm0-1.29a.64.64,0,0,1,.65.64.65.65,0,0,1-.65.65Z" transform="translate(0.29 -0.33)"/><path class="cls-4" d="M243,78.3a.65.65,0,0,1-.65-.65A.64.64,0,0,1,243,77Zm1.94,0H243V77h1.94Zm0-1.29a.64.64,0,0,1,.65.64.65.65,0,0,1-.65.65Z" transform="translate(0.29 -0.33)"/><path class="cls-5" d="M206,80.82h-6.91a94.67,94.67,0,0,0,10.08-11.59c2.81-4,.43-7.34-4-4.75-7.63,4.46-14.4,11-19.37,16,0-12.16-7.34-13.6-8-9.64a102.19,102.19,0,0,0-1.37,11.59c-.22,3.6-1.15,7-1,10.8.15,5,3.67,8.49,7.35,11.88,2.37,2.16,3.88,3.09,7,2.37,2.74-.57,8.93-6.48,14.11-11.66,5.4-5.47,9.87-11.59,12-15.84,2.59-5.18,1.22-10-2.38-6.48Z" transform="translate(0.29 -0.33)"/><path class="cls-1" d="M195.19,82.12,201,87.45c4.68-5.26,9.94-10.16,13.9-15.77,2.81-4-.36-8.35-4-4.83Z" transform="translate(0.29 -0.33)"/><path class="cls-5" d="M229,80.68h6.84a108.6,108.6,0,0,1-10-11.59c-2.81-4-.43-7.35,4-4.83,7.71,4.47,14.47,11,19.44,16.13-.07-12.17,7.35-13.61,8-9.72a104,104,0,0,1,1.37,11.59c.22,3.6,1.15,7.13,1,10.8-.14,5-3.67,8.5-7.34,12-2.38,2.16-3.89,3.1-7.06,2.38-2.74-.65-8.93-6.48-14.11-11.66-5.4-5.48-9.87-11.6-12-15.84-2.6-5.19-1.23-10.08,2.37-6.48Z" transform="translate(0.29 -0.33)"/><path class="cls-1" d="M301.32,107.53l.22.22Zm.22.22a.9.9,0,0,1,.21.29Zm44.64.29a.9.9,0,0,1,.21-.29Zm.21-.29a.91.91,0,0,0,.22-.29Zm3.46-7.78c.07-.28.07-.64.14-.93Zm.14-1c.07-.22.07-.44.15-.65Zm.65-5c12.53,2.16,12.1-20.23,3.67-18.36l-3.53-13.83L340.13,43.67l-41.26,7.92L294,76.14l-.65-.29C285,74,284.76,96.16,297.29,94h0v.5l.07.22h0v.5l.07.22h0v.43l.07.29h0v.36l.08.07v.29h0l.07.21v.51l.07.29V98l.07.22v.07l.07.21v.22l.08.22h0v.36l.07.14v.22h0l.07.21v.15l.07.14v.14l.07.08v.28l.08.15.07.21h0l.07.29h0v.15l.07.14v.14h0l.07.22v.07h.08v.22l.07.14.07.29h0l.07.29.07.07v.07l.08.22h0l.07.21h.07v.22l.14.14v.15l.08.21.07.08.07.21.07.07h0l.07.22.08.07.07.29h.07v.07l.07.22.07.07h0l.15.22h0c.07.14.14.21.14.28l.07.08.15.21h0v.07l.14.22.07.07c.08.07.08.15.15.22h0l.07.07.14.14v.08l.22.21h0v.07l.22.22h0a.9.9,0,0,1,.21.29c5.69,6.19,13.54,9.36,22.18,12.09,8.71-2.73,16.56-5.9,22.25-12.09a.9.9,0,0,1,.21-.29h0l.22-.29h0l.21-.21v-.08L347,107,347,107h0l.14-.22.08-.07.14-.22v-.07h0l.14-.21.08-.08.14-.21v-.07h0l.14-.29h0l.15-.29h0l.14-.29h.07l.08-.29h0l.07-.07.07-.21v-.08l.14-.28h0l.08-.22.07-.07v-.15h.07l.07-.21.07-.29V103l.15-.29h0l.07-.29v-.07l.07-.22.07-.07V102l.08-.29h0l.07-.29h0v-.07l.07-.21v-.08l.07-.14v-.22l.07-.07v-.21l.08-.08h0l.07-.28h0V100c.07-.28.07-.64.14-.93V99c.07-.22.07-.44.15-.65V98.1l.07-.21v-.08l.07-.28v-.36l.07-.29h0v-.22l.07-.14v-.36h0l.08-.72h0l.07-.36v-.36l.07-.22v-.43h.72l-.72-.07Z" transform="translate(0.29 -0.33)"/><path id="_1-3" data-name="1" class="cls-2" d="M301.32,107.53l.22.22m0,0a.9.9,0,0,1,.21.29m44.43,0a.9.9,0,0,1,.21-.29m0,0a.91.91,0,0,0,.22-.29m3.24-7.49c.07-.28.07-.64.14-.93m0-.07c.07-.22.07-.44.15-.65m.5-4.32c12.53,2.16,12.1-20.23,3.67-18.36l-3.53-13.83L340.13,43.67l-41.26,7.92L294,76.14l-.65-.29C285,74,284.76,96.16,297.29,94h0v.5l.07.22h0v.5l.07.22h0v.43l.07.29h0v.36l.08.07v.29h0l.07.21v.51l.07.29V98l.07.22v.07l.07.21v.22l.08.22h0v.36l.07.14v.22h0l.07.21v.15l.07.14v.14l.07.08v.28l.08.15.07.21h0l.07.29h0v.15l.07.14v.14h0l.07.22v.07h.08v.22l.07.14.07.29h0l.07.29.07.07v.07l.08.22h0l.07.21h.07v.22l.14.14v.15l.08.21.07.08.07.21.07.07h0l.07.22.08.07.07.29h.07v.07l.07.22.07.07h0l.15.22h0c.07.14.14.21.14.28l.07.08.15.21h0v.07l.14.22.07.07c.08.07.08.15.15.22h0l.07.07.14.14v.08l.22.21h0v.07l.22.22h0a.9.9,0,0,1,.21.29c5.69,6.19,13.54,9.36,22.18,12.09,8.71-2.73,16.56-5.9,22.25-12.09a.9.9,0,0,1,.21-.29h0l.22-.29h0l.21-.21v-.08L347,107,347,107h0l.14-.22.08-.07.14-.22v-.07h0l.14-.21.08-.08.14-.21v-.07h0l.14-.29h0l.15-.29h0l.14-.29h.07l.08-.29h0l.07-.07.07-.21v-.08l.14-.28h0l.08-.22.07-.07v-.15h.07l.07-.21.07-.29V103l.15-.29h0l.07-.29v-.07l.07-.22.07-.07V102l.08-.29h0l.07-.29h0v-.07l.07-.21v-.08l.07-.14v-.22l.07-.07v-.21l.08-.08h0l.07-.28h0V100c.07-.28.07-.64.14-.93V99c.07-.22.07-.44.15-.65V98.1l.07-.21v-.08l.07-.28v-.36l.07-.29h0v-.22l.07-.14v-.36h0l.08-.72h0l.07-.36v-.36l.07-.22v-.43h.72l-.72-.07Z" transform="translate(0.29 -0.33)"/><path class="cls-2" d="M317,49.43c-10.23,1.58-14.33,6.48-18.51,15.84-1.73,3.89-2.16,13.82-2.52,17.35-2.09.65-1.65-6.77-2.59-6.77-.36,0-1.58-.5-2.23.08-.15-7.85-.36-21.82,7.41-28.8-7.2,2.37-6,4.68-10.15,9.43,1.95-11,8.07-17.86,17.86-20.59,4.68-6.2-2.74-6.92-9.87-9.36,12.82-.87,19.66.79,18.94,5.25-.36-10.94,8.28-14.61,13.39-16.13-6.26,5.19-7.92,10.44-6.77,16.35,3-5.26,5.19-6.55,12.1-6,4.39.36,7.7-1.87,9.58-5.69-.08.15,2.8,10.8-7.71,12.24,13.18.08,20.74,11.31,22.9,17.64-3-2.66-5.91-5-10.15-4.46,6.84,1,8.78,24,7.77,30.1-1.44-.29-5-.94-5.11,4-.5-8.57.5-19.66-7.56-26.21,2.52,5.4.94,8,0,10.51.94-9-3.67-16-13-18.65,3.81,3.46,4.25,10.16,1.37,14.91C329.9,50.22,322.7,48.49,317,49.43Z" transform="translate(0.29 -0.33)"/><path class="cls-2" d="M309.6,68.08a10.77,10.77,0,1,1-10.73,10.8A10.78,10.78,0,0,1,309.6,68.08Z" transform="translate(0.29 -0.33)"/><path class="cls-2" d="M314.57,69.3a10.86,10.86,0,0,1,5,5.55L308.88,89.61a10.47,10.47,0,0,1-6.77-3.1Z" transform="translate(0.29 -0.33)"/><path class="cls-2" d="M338.33,68.08a10.77,10.77,0,1,1-10.8,10.8A10.77,10.77,0,0,1,338.33,68.08Z" transform="translate(0.29 -0.33)"/><path class="cls-2" d="M342.14,68.8a10.7,10.7,0,0,1,5.55,4.82L336.17,89.39A10.82,10.82,0,0,1,330,85.65Z" transform="translate(0.29 -0.33)"/><path class="cls-2" d="M323.93,85.07a20.35,20.35,0,0,1-5.26,9.36c.36,3.31,7.2,4,10.59,1.51" transform="translate(0.29 -0.33)"/><path class="cls-2" d="M316.3,106.38c4,3.1,9.57,3.24,15.33,0" transform="translate(0.29 -0.33)"/><polyline class="cls-3" points="318.74 49.32 315.86 55.58 320.11 57.02 316.8 64.08"/><path class="cls-2" d="M297.43,94c-12.67,2.37-12.45-20-4.1-18.15" transform="translate(0.29 -0.33)"/><path class="cls-2" d="M350.5,94c12.67,2.37,12.45-20,4.1-18.15" transform="translate(0.29 -0.33)"/><line class="cls-2" x1="321.05" y1="77.33" x2="327.6" y2="77.33"/><path class="cls-4" d="M296.71,78.3a.65.65,0,0,1-.65-.65.64.64,0,0,1,.65-.64Zm2,0h-2V77h2Zm0-1.29a.62.62,0,0,1,.57.64.63.63,0,0,1-.57.65Z" transform="translate(0.29 -0.33)"/><path class="cls-4" d="M349.34,78.3a.64.64,0,0,1-.64-.65.63.63,0,0,1,.64-.64Zm2,0h-2V77h2Zm0-1.29a.64.64,0,0,1,.65.64.65.65,0,0,1-.65.65Z" transform="translate(0.29 -0.33)"/><path class="cls-5" d="M331.2,107.82l4.68-5c-5.11,0-10.3.15-15.26-.57s-5.69-4.76-.8-6.27c8.5-2.52,17.93-3,25.06-3.09C336,84.57,340,78.23,343.3,80.39a109.81,109.81,0,0,1,9.36,7c2.8,2.31,6,4,8.56,6.63,3.53,3.6,3.68,8.49,3.6,13.53,0,3.24-.43,5-3,6.77-2.38,1.59-10.87,2.09-18.22,2.31-7.7.14-15.19-.8-19.72-2.16-5.55-1.66-8.21-6-3.1-6.2Z" transform="translate(0.29 -0.33)"/><path class="cls-1" d="M339.55,100.84v3.67l-.07,4.18c-7.06-.22-14.26.28-21-.72-4.9-.72-5.91-6-.8-6.2C324.94,101.49,332.28,101.13,339.55,100.84Z" transform="translate(0.29 -0.33)"/><path class="cls-3" d="M339.55,100.84c-7.27.29-14.61.65-21.89.93-5.11.22-4.1,5.48.8,6.2,6.76,1,14,.5,21,.72" transform="translate(0.29 -0.33)"/><path class="cls-6" d="M79.42,157c-6,0-6.84-3.89-7.71-3.89-.29,0-.72.5-.72.94,0,1.22,2.88,4.53,8.64,4.53,5.11,0,8.86-2.66,8.86-9,0-12.74-15.12-6.77-15.12-16.34,0-4.83,3.81-6,7.2-6,4,0,5.69,1.66,6.26,1.66s.79-.58.79-.94c0-1.08-3.38-2.37-7.05-2.37s-8.79,1.29-8.79,7.77c0,11.09,15,5,15,16.35C86.83,154.48,84.24,157,79.42,157Zm14.9.5a.79.79,0,0,0,1.58,0V144.61H103c4.9,0,8.79-2.52,8.79-9.21v-.58c0-6.69-3.89-9.21-8.79-9.21H95.11a.8.8,0,0,0-.79.79ZM103,127.26c4.47,0,7.13,2.38,7.13,7.56v.58c0,5.18-2.66,7.63-7.13,7.63H95.9V127.26Zm22.61,31.32c4.9,0,8.78-2.52,8.78-9.21V134.82c0-6.69-3.88-9.21-8.78-9.21s-8.71,2.52-8.71,9.21v14.55C116.93,156.06,120.74,158.58,125.64,158.58Zm7.13-9.21c0,5.18-2.67,7.63-7.13,7.63s-7.13-2.45-7.13-7.63V134.82c0-5.18,2.67-7.56,7.13-7.56s7.13,2.38,7.13,7.56Zm8.71,8.13a.81.81,0,0,0,.86.79.8.8,0,0,0,.8-.79V126.4a.8.8,0,0,0-.8-.79.81.81,0,0,0-.86.79Zm24.26.79c.44,0,.65-.36.65-.79s-.21-.79-.65-.79h-13.6V126.4a.8.8,0,0,0-1.59,0v31.1a.75.75,0,0,0,.79.79Zm6.63-31h15.12a.81.81,0,0,0,.72-.86.74.74,0,0,0-.72-.79H171.58a.82.82,0,0,0-.87.86v31a.81.81,0,0,0,.87.79h15.91a.68.68,0,0,0,.72-.72.76.76,0,0,0-.72-.86H172.37v-14h7.13a.74.74,0,0,0,.79-.72.78.78,0,0,0-.79-.86h-7.13ZM193,157.5a.81.81,0,0,0,.86.79.8.8,0,0,0,.8-.79V142.74h6.62l7.13,14c.29.65.65,1.58,1.29,1.58a.8.8,0,0,0,.8-.79.74.74,0,0,0-.15-.5L203,142.67c4.17-.5,7.49-2.81,7.49-8.5,0-6.48-4.25-8.56-9.22-8.56h-7.42c-.5.07-.86.36-.86.79Zm8.28-30.24c4.46,0,7.63,2,7.63,6.91s-3.17,7-7.63,7h-6.62v-13.9Z" transform="translate(0.29 -0.33)"/><path class="cls-7" d="M245.52,123a7.58,7.58,0,0,1,1.37-.43,6.11,6.11,0,0,1,1.58-.07,2.34,2.34,0,0,1,1.37.43,1.77,1.77,0,0,1,.86,1.23,3.2,3.2,0,0,1,.15,2,6.23,6.23,0,0,1-1.15,2.09,12,12,0,0,1-2.24,1.94,20.64,20.64,0,0,1-3.16,1.66,39.63,39.63,0,0,1-4.47,1.66,18.63,18.63,0,0,0,.51,3.24,19.88,19.88,0,0,0,1.08,3.67c.43-.22.93-.43,1.44-.65l1.51-.65c.65-.29,1.37-.57,2.09-.86s1.44-.58,2.16-.79a.7.7,0,0,1,.57,0c.22.07.29.21.36.43a.8.8,0,0,1,0,.57.69.69,0,0,1-.43.36c-.72.29-1.44.58-2.09.87a16.73,16.73,0,0,0-2.09.79c-.57.22-1.08.5-1.58.72s-.94.43-1.44.65a5.18,5.18,0,0,1,.22.5,1.08,1.08,0,0,1,.14.43,14.15,14.15,0,0,1,1,5.48c-.07,6.84-4.9,11.37-11.67,11.8a9.16,9.16,0,0,1-2.88-.21,8.35,8.35,0,0,1-2.23-.72,7.16,7.16,0,0,1-1.65-1,4.67,4.67,0,0,1-1.08-.94l-.08-.07c0-.07-.07-.07-.07-.14a.82.82,0,0,1,0-.58,1.74,1.74,0,0,1,.51-.5,1,1,0,0,1,.43-.15c.14,0,.21.08.36.22a3.41,3.41,0,0,0,.93.86,5.08,5.08,0,0,0,1.44.87,7.61,7.61,0,0,0,2,.65,9.93,9.93,0,0,0,2.59.14c8.5-.58,11.74-7.63,9-15.12l-.21-.43a1,1,0,0,0-.15-.43c-1.22.64-2.37,1.22-3.38,1.8s-1.95,1-2.67,1.44-1.36.86-1.87,1.15a6.88,6.88,0,0,1-.86.5,2.06,2.06,0,0,1-.65.07c-.14,0-.29-.14-.43-.36a1.6,1.6,0,0,1,.07-.57.87.87,0,0,1,.36-.43l.65-.44c.43-.28,1.08-.64,1.87-1.15l2.81-1.51c1.08-.65,2.3-1.22,3.6-1.87a26.25,26.25,0,0,1-1.66-7.2c-1.44.43-2.88.86-4.39,1.22s-3.24.79-5.11,1.3V135c1.8-.51,3.53-.94,5-1.3s3.09-.86,4.53-1.29a7.48,7.48,0,0,1,.58-3.1,10,10,0,0,1,3.89-4.82A10.78,10.78,0,0,1,245.52,123Zm3.74,1.66a.82.82,0,0,0-.5-.58,1.88,1.88,0,0,0-.86-.14,5,5,0,0,0-1,.14,8,8,0,0,0-.87.29c-.57.29-1.22.58-1.94,1a9.61,9.61,0,0,0-1.87,1.66,7,7,0,0,0-1.59,2.16,8.18,8.18,0,0,0-.72,2.73,32.61,32.61,0,0,0,3.89-1.44,21.55,21.55,0,0,0,2.59-1.29,14.74,14.74,0,0,0,1.88-1.52,6.29,6.29,0,0,0,1-1.58A1.65,1.65,0,0,0,249.26,124.67ZM254,142.31a5,5,0,0,1,.14,1,3.57,3.57,0,0,1,.07.86v.87a.66.66,0,0,1-.5.64.57.57,0,0,1-.51,0,.64.64,0,0,1-.43-.43v-1.08c0-.29-.07-.72-.14-1.29-.22.07-.43.14-.72.21a2.19,2.19,0,0,1-.65.15,1.41,1.41,0,0,1-.58-.15,1.05,1.05,0,0,1-.43-.65,2.37,2.37,0,0,1-.14-.86,8.16,8.16,0,0,1,.07-1.3,5.53,5.53,0,0,1,.36-1.15,1.06,1.06,0,0,1,.58-.65.93.93,0,0,1,.86,0,2.85,2.85,0,0,1,.65.65,2.68,2.68,0,0,1,.57.87l.44.86a2.19,2.19,0,0,1,.57-.29,5.29,5.29,0,0,0,.58-.21,2.7,2.7,0,0,1,1.8-.15,2,2,0,0,1,1.15,1.3c.07.29.22.65.29.93s.14.65.21,1,.15.72.22,1a3.84,3.84,0,0,0,.29,1,3.92,3.92,0,0,0,.57,1.08,2.35,2.35,0,0,0,.72.5,1.39,1.39,0,0,0,.72.15,1.61,1.61,0,0,0,.65-.08,2.85,2.85,0,0,0,1.3-1,9.6,9.6,0,0,0,.86-1.73,20,20,0,0,0,.51-2c.14-.64.21-1.22.28-1.72,0-.15.08-.22.15-.36s.21-.15.36-.22a.77.77,0,0,1,.57.07,1,1,0,0,1,.36.43.61.61,0,0,1,.08.36c-.15.65-.22,1.3-.36,2.09a11.71,11.71,0,0,1-.65,2.23,6.83,6.83,0,0,1-1.15,1.95,4.17,4.17,0,0,1-1.8,1.29,2.85,2.85,0,0,1-1.37.15,3,3,0,0,1-1.3-.36,2.78,2.78,0,0,1-1.08-.94,3.92,3.92,0,0,1-.86-1.44,19.82,19.82,0,0,1-.51-1.94,12.81,12.81,0,0,0-.43-1.87.74.74,0,0,0-.36-.44,1.05,1.05,0,0,0-.79.08,4.62,4.62,0,0,1-.58.21A2.59,2.59,0,0,0,254,142.31Zm-1.73-.86a3.88,3.88,0,0,0-.15-.36l-.21-.44c-.07-.14-.15-.21-.15-.28s-.14-.15-.21-.15a.32.32,0,0,0-.07.22c0,.14-.08.21-.08.43v.86C251.71,141.66,252,141.52,252.29,141.45ZM268,143.89a3.31,3.31,0,0,0,1.37.58,3.1,3.1,0,0,0,1.59-.07,4,4,0,0,0,1.58-.94,5.36,5.36,0,0,0,.94-1.51A7.87,7.87,0,0,0,274,140a20,20,0,0,0,.29-2c0-.14,0-.29.14-.36a.41.41,0,0,1,.29-.22,1,1,0,0,1,.65.08,1.24,1.24,0,0,1,.36.5c0,.07,0,.14.07.14s0,.15-.07.15a13,13,0,0,1-1.23,5.11,4.68,4.68,0,0,1-2.95,2.45,5.1,5.1,0,0,1-2.3.14,6.12,6.12,0,0,1-3.46-2.3,6.54,6.54,0,0,1-.93-1.87,6.11,6.11,0,0,1-.44-1.88,5.41,5.41,0,0,1,.15-1.58,3.73,3.73,0,0,1,.72-1.3,3.67,3.67,0,0,1,1.22-.79,4,4,0,0,1,.94-.07,4,4,0,0,1,.93.29l.87.65a3.65,3.65,0,0,1,.57,1.08,5.31,5.31,0,0,1,.29,1.51,10,10,0,0,1-.29,1.51,7.74,7.74,0,0,1-.72,1.37A4.48,4.48,0,0,1,268,143.89Zm-1-1.08a3.43,3.43,0,0,0,.86-.93,6.51,6.51,0,0,0,.5-1.08,5,5,0,0,0,.22-1.15,2.78,2.78,0,0,0-.22-1.08,1.49,1.49,0,0,0-.57-.72,1,1,0,0,0-.79-.15,1.19,1.19,0,0,0-.72.58,1.74,1.74,0,0,0-.36.86,6.35,6.35,0,0,0,.07,1.15,4.92,4.92,0,0,0,.29,1.16,5.44,5.44,0,0,0,.28.72Zm10.87-1.44a4.55,4.55,0,0,0,1.37.65,3.88,3.88,0,0,0,1.65.07,3,3,0,0,0,1.51-.79,4.19,4.19,0,0,0,.94-1.44,8.15,8.15,0,0,0,.58-1.87,17.89,17.89,0,0,0,.21-2c0-.14.07-.21.15-.36a.54.54,0,0,1,.36-.14.56.56,0,0,1,.57.14,1,1,0,0,1,.43.51v.29a11.4,11.4,0,0,1-1.29,5,4.36,4.36,0,0,1-2.95,2.16,5,5,0,0,1-2.31-.15,4.79,4.79,0,0,1-1.94-.93,6.37,6.37,0,0,1-1.51-1.59,6.31,6.31,0,0,1-1-1.87,6,6,0,0,1-.36-1.87,4.34,4.34,0,0,1,.14-1.66,3.13,3.13,0,0,1,.72-1.22,2.77,2.77,0,0,1,1.23-.65,2.08,2.08,0,0,1,.93,0,5.18,5.18,0,0,1,.94.36,7.82,7.82,0,0,1,.86.72,3.93,3.93,0,0,1,.58,1.08,4.2,4.2,0,0,1,.29,1.58,5.19,5.19,0,0,1-.29,1.44,6.23,6.23,0,0,1-.72,1.37A8.13,8.13,0,0,1,277.85,141.37Zm-1-1.15a4.65,4.65,0,0,0,.86-.86,7.52,7.52,0,0,0,.51-1.08,5.88,5.88,0,0,0,.21-1.08,3,3,0,0,0-.21-1.08,1.73,1.73,0,0,0-.58-.79,1.09,1.09,0,0,0-.79-.22,1.5,1.5,0,0,0-.79.5,3.71,3.71,0,0,0-.29.87,6.3,6.3,0,0,0,0,1.15,5.53,5.53,0,0,0,.36,1.15,2.59,2.59,0,0,0,.29.72A5.7,5.7,0,0,0,276.84,140.22Z" transform="translate(0.29 -0.33)"/><path class="cls-7" d="M230.9,136c-2,.51-4.1,1.3-5.18,3.82a2.76,2.76,0,0,0-.22,1.51,3.69,3.69,0,0,0,.44,1.23,2.63,2.63,0,0,0,.57.86c.22.22.29.29.29.36s.22.14.22.29a.42.42,0,0,1-.08.29.64.64,0,0,1-.43.43,2,2,0,0,1-.65.07,1.49,1.49,0,0,1-.36-.22,5.65,5.65,0,0,1-.86-.93,5.9,5.9,0,0,1-.58-1.15,3.34,3.34,0,0,1-.28-1.44,3.22,3.22,0,0,1,.28-1.59,8.31,8.31,0,0,1,6.12-4.82C230.76,135.25,231.7,135.76,230.9,136Z" transform="translate(0.29 -0.33)"/><path class="cls-6" d="M303.48,155.2l-8.06-29a1,1,0,0,0-.87-.57.72.72,0,0,0-.72.72v.28l8.86,31.32a.76.76,0,0,0,.79.65.89.89,0,0,0,.86-.65l4.83-17.49,5,17.49a.76.76,0,0,0,.79.65.89.89,0,0,0,.86-.65l8.71-31.32v-.28a.72.72,0,0,0-.72-.72,1,1,0,0,0-.86.57l-8,29L310.1,138c-.21-.65-.43-.79-.93-.79a.86.86,0,0,0-.94.79Zm25.92,2.3a.79.79,0,0,0,1.58,0V126.4a.79.79,0,0,0-1.58,0Zm26.14.43a1,1,0,0,0,.64.36.82.82,0,0,0,.87-.79.51.51,0,0,0-.15-.43l-11.52-17.28,10.37-12.89a.79.79,0,0,0,.15-.43.93.93,0,0,0-.8-.86,1.07,1.07,0,0,0-.64.28l-14.4,18V126.4a.82.82,0,0,0-.87-.79.79.79,0,0,0-.79.79v31.1a.79.79,0,0,0,.79.79.82.82,0,0,0,.87-.79v-11l4.24-5.4Zm5.61-.43a.75.75,0,0,0,.79.79.8.8,0,0,0,.8-.79V126.4a.8.8,0,0,0-.8-.79.75.75,0,0,0-.79.79Z" transform="translate(0.29 -0.33)"/><path class="cls-3" d="M195.19,81.4l15.7-15.27c3.6-3.52,6.77.8,4,4.83-4,5.61-9.22,10.51-13.9,15.77" transform="translate(0.29 -0.33)"/><path class="cls-1" d="M239.76,82,234,87.3c-4.68-5.33-9.94-10.15-13.9-15.84-2.8-4,.36-8.35,4-4.75C229.32,71.75,234.58,76.86,239.76,82Z" transform="translate(0.29 -0.33)"/><path class="cls-3" d="M239.76,82c-5.18-5.11-10.44-10.22-15.7-15.26-3.6-3.6-6.76.79-4,4.75,4,5.69,9.22,10.51,13.9,15.84" transform="translate(0.29 -0.33)"/></svg>