<?xml version="1.0" encoding="UTF-8"?>
<!DOCTYPE svg PUBLIC "-//W3C//DTD SVG 1.1//EN" "http://www.w3.org/Graphics/SVG/1.1/DTD/svg11.dtd">
<!-- Creator: CorelDRAW X8 -->
<svg xmlns="http://www.w3.org/2000/svg" xml:space="preserve" width="6in" height="5in" version="1.1" style="shape-rendering:geometricPrecision; text-rendering:geometricPrecision; image-rendering:optimizeQuality; fill-rule:evenodd; clip-rule:evenodd"
viewBox="0 0 6000 5000"
 xmlns:xlink="http://www.w3.org/1999/xlink">
 <defs>
  <style type="text/css">
   <![CDATA[
    .str2 {stroke:#505168;stroke-width:17.9055;stroke-linecap:round;stroke-linejoin:round}
    .str13 {stroke:#99885F;stroke-width:17.9055;stroke-linecap:round;stroke-linejoin:round}
    .str12 {stroke:#99885F;stroke-width:17.9055;stroke-linecap:round;stroke-linejoin:round}
    .str11 {stroke:#99885F;stroke-width:17.9055;stroke-linecap:round;stroke-linejoin:round}
    .str15 {stroke:#99885F;stroke-width:17.9055;stroke-linecap:round;stroke-linejoin:round}
    .str16 {stroke:#99885F;stroke-width:17.9055;stroke-linecap:round;stroke-linejoin:round}
    .str14 {stroke:#99885F;stroke-width:17.9055;stroke-linecap:round;stroke-linejoin:round}
    .str27 {stroke:#99885F;stroke-width:17.9094;stroke-linecap:round;stroke-linejoin:round}
    .str41 {stroke:#99885F;stroke-width:17.9094;stroke-linecap:round;stroke-linejoin:round}
    .str28 {stroke:#99885F;stroke-width:17.9094;stroke-linecap:round;stroke-linejoin:round}
    .str42 {stroke:#99885F;stroke-width:17.9094;stroke-linecap:round;stroke-linejoin:round}
    .str34 {stroke:#505168;stroke-width:17.9094;stroke-linecap:round;stroke-linejoin:round}
    .str23 {stroke:#99885F;stroke-width:17.9094;stroke-linecap:round;stroke-linejoin:round}
    .str5 {stroke:#505168;stroke-width:17.9094;stroke-linecap:round;stroke-linejoin:round}
    .str7 {stroke:#99885F;stroke-width:17.9094;stroke-linecap:round;stroke-linejoin:round}
    .str18 {stroke:#505168;stroke-width:17.9094;stroke-linecap:round;stroke-linejoin:round}
    .str1 {stroke:#505168;stroke-width:17.9094;stroke-linecap:round;stroke-linejoin:round}
    .str21 {stroke:#505168;stroke-width:17.9094;stroke-linecap:round;stroke-linejoin:round}
    .str8 {stroke:#505168;stroke-width:17.9094;stroke-linecap:round;stroke-linejoin:round}
    .str30 {stroke:#505168;stroke-width:17.9094;stroke-linecap:round;stroke-linejoin:round}
    .str33 {stroke:#505168;stroke-width:17.9094;stroke-linecap:round;stroke-linejoin:round}
    .str22 {stroke:#505168;stroke-width:17.9094;stroke-linecap:round;stroke-linejoin:round}
    .str36 {stroke:#505168;stroke-width:17.9094;stroke-linecap:round;stroke-linejoin:round}
    .str35 {stroke:#99885F;stroke-width:17.9094;stroke-linecap:round;stroke-linejoin:round}
    .str24 {stroke:#505168;stroke-width:17.9094;stroke-linecap:round;stroke-linejoin:round}
    .str6 {stroke:#505168;stroke-width:17.9094;stroke-linecap:round;stroke-linejoin:round}
    .str9 {stroke:#505168;stroke-width:17.9094;stroke-linecap:round;stroke-linejoin:round}
    .str25 {stroke:#505168;stroke-width:17.9094;stroke-linecap:round;stroke-linejoin:round}
    .str37 {stroke:#505168;stroke-width:17.9094;stroke-linecap:round;stroke-linejoin:round}
    .str32 {stroke:#505168;stroke-width:17.9094;stroke-linecap:round;stroke-linejoin:round}
    .str0 {stroke:#505168;stroke-width:17.9094;stroke-linecap:round;stroke-linejoin:round}
    .str3 {stroke:#505168;stroke-width:17.9094;stroke-linecap:round;stroke-linejoin:round}
    .str20 {stroke:#505168;stroke-width:17.9094;stroke-linecap:round;stroke-linejoin:round}
    .str31 {stroke:#505168;stroke-width:17.9094;stroke-linecap:round;stroke-linejoin:round}
    .str38 {stroke:#505168;stroke-width:17.9094;stroke-linecap:round;stroke-linejoin:round}
    .str4 {stroke:#505168;stroke-width:17.9094;stroke-linecap:round;stroke-linejoin:round}
    .str19 {stroke:#505168;stroke-width:17.9094;stroke-linecap:round;stroke-linejoin:round}
    .str17 {stroke:#505168;stroke-width:17.9094;stroke-linecap:round;stroke-linejoin:round}
    .str10 {stroke:#505168;stroke-width:17.9094;stroke-linecap:round;stroke-linejoin:round}
    .str26 {stroke:#505168;stroke-width:17.9094;stroke-linecap:round;stroke-linejoin:round}
    .str29 {stroke:#505168;stroke-width:17.9094;stroke-linecap:round;stroke-linejoin:round}
    .str39 {stroke:#99885F;stroke-width:17.9094;stroke-linecap:round;stroke-linejoin:round}
    .str40 {stroke:#99885F;stroke-width:17.9094;stroke-linecap:round;stroke-linejoin:round}
    .fil2 {fill:none}
    .fil0 {fill:#27233A}
    .fil1 {fill:#27233A}
    .fil3 {fill:#505168;fill-rule:nonzero}
    .fil4 {fill:#99885F;fill-rule:nonzero}
   ]]>
  </style>
 </defs>
 <g id="Layer_x0020_1">
  <metadata id="CorelCorpID_0Corel-Layer"/>
  <polygon class="fil0" points="-4,1274 5931,1274 5931,3753 -4,3753 "/>
  <g id="_2584386166592">
   <g>
    <g>
     <g>
      <path class="fil1" d="M1215 2739c1,2 1,3 2,4l-2 -4zm16 24c1,1 1,2 2,3l-2 -3zm3 3c1,1 2,2 3,4l-3 -4zm620 4c1,-2 2,-3 3,-4l-3 4zm3 -4c1,-1 2,-2 3,-4l-3 4zm47 -108c1,-4 2,-9 3,-13l-3 13zm3 -14c1,-3 1,-6 2,-9l-2 9zm9 -69l0 0c174,30 170,-284 54,-258l-62 -196 -135 -248 -576 113 -68 341 -9 -4c-116,-26 -119,282 54,252l0 0 1 3 0 2 0 2 0 3 0 0 1 3 0 2 0 2 0 3 0 0 1 3 0 2 0 1 1 4 0 0 0 3 0 2 0 1 1 4 0 0 0 3 0 2 1 1 0 3 0 1 1 4 0 2 1 3 0 1 0 3 0 1 1 2 0 3 0 0 1 5 1 2 0 3 0 0 1 3 0 2 1 2 0 2 0 1 1 3 0 1 1 2 0 3 1 0 0 4 0 0 1 2 0 2 1 2 0 0 1 3 0 1 0 0 1 3 1 2 1 4 0 0 1 4 1 1 0 1 1 3 0 0 1 3 0 0 1 2 0 1 1 2 1 1 0 1 1 3 0 1 2 3 0 1 1 0 1 3 0 1 2 4 0 0 1 1 1 3 1 1 0 0 2 3 0 0c1,2 1,3 2,4l0 1c1,1 2,2 3,3l0 0 0 1 2 3 1 1 2 3 0 0 0 1 2 2 1 1 3 3 0 0 0 1c1,1 1,2 2,3l1 0c1,1 2,2 3,4 78,86 188,130 308,168 121,-38 230,-82 309,-168 1,-2 2,-3 3,-4l0 0c1,-1 2,-2 3,-4l0 0c1,-1 2,-2 2,-3l1 -1 2 -2 1 -1 0 0 0 0 2 -3 1 -1 2 -3 0 -1 0 0 2 -3 0 -1 2 -3 1 -1 0 0 0 0 2 -4 0 0 2 -4 0 0 2 -4 0 0 2 -4 0 0 0 -1 2 -3 0 -1 2 -4 0 0 1 -3 0 -1 1 -2 0 0 1 -3 2 -4 0 -1 1 -4 0 0 1 0 1 -4 0 -1 1 -3 0 -1 0 -1 2 -4 0 0 1 -4 0 0 0 -1 1 -3 0 -1 1 -2 0 -3 0 -1 1 -3 0 -1 0 0 1 -4 0 0 0 -1c1,-4 2,-9 3,-13l0 -1c1,-3 1,-6 2,-9l0 -1 0 -2 1 -3 0 -1 0 -4 1 -2 0 -2 0 -1 1 -4 0 0 0 -3 0 -2 1 -5 0 0 1 -10 0 0 1 -5 0 -1 0 -3 0 -1 0 -3 1 -2 0 -1 0 -3 10 0 -10 -1z"/>
      <path id="1" class="fil2 str0" d="M1215 2739c1,2 1,3 2,4m14 20c1,1 1,2 2,3m1 0c1,1 2,2 3,4m617 0c1,-2 2,-3 3,-4m0 0c1,-1 2,-2 3,-4m44 -104c1,-4 2,-9 3,-13m0 -1c1,-3 1,-6 2,-9m7 -60l0 0c174,30 170,-284 54,-258l-62 -196 -135 -248 -576 113 -68 341 -9 -4c-116,-26 -119,282 54,252l0 0 1 3 0 2 0 2 0 3 0 0 1 3 0 2 0 2 0 3 0 0 1 3 0 2 0 1 1 4 0 0 0 3 0 2 0 1 1 4 0 0 0 3 0 2 1 1 0 3 0 1 1 4 0 2 1 3 0 1 0 3 0 1 1 2 0 3 0 0 1 5 1 2 0 3 0 0 1 3 0 2 1 2 0 2 0 1 1 3 0 1 1 2 0 3 1 0 0 4 0 0 1 2 0 2 1 2 0 0 1 3 0 1 0 0 1 3 1 2 1 4 0 0 1 4 1 1 0 1 1 3 0 0 1 3 0 0 1 2 0 1 1 2 1 1 0 1 1 3 0 1 2 3 0 1 1 0 1 3 0 1 2 4 0 0 1 1 1 3 1 1 0 0 2 3 0 0c1,2 1,3 2,4l0 1c1,1 2,2 3,3l0 0 0 1 2 3 1 1 2 3 0 0 0 1 2 2 1 1 3 3 0 0 0 1c1,1 1,2 2,3l1 0c1,1 2,2 3,4 78,86 188,130 308,168 121,-38 230,-82 309,-168 1,-2 2,-3 3,-4l0 0c1,-1 2,-2 3,-4l0 0c1,-1 2,-2 2,-3l1 -1 2 -2 1 -1 0 0 0 0 2 -3 1 -1 2 -3 0 -1 0 0 2 -3 0 -1 2 -3 1 -1 0 0 0 0 2 -4 0 0 2 -4 0 0 2 -4 0 0 2 -4 0 0 0 -1 2 -3 0 -1 2 -4 0 0 1 -3 0 -1 1 -2 0 0 1 -3 2 -4 0 -1 1 -4 0 0 1 0 1 -4 0 -1 1 -3 0 -1 0 -1 2 -4 0 0 1 -4 0 0 0 -1 1 -3 0 -1 1 -2 0 -3 0 -1 1 -3 0 -1 0 0 1 -4 0 0 0 -1c1,-4 2,-9 3,-13l0 -1c1,-3 1,-6 2,-9l0 -1 0 -2 1 -3 0 -1 0 -4 1 -2 0 -2 0 -1 1 -4 0 0 0 -3 0 -2 1 -5 0 0 1 -10 0 0 1 -5 0 -1 0 -3 0 -1 0 -3 1 -2 0 -1 0 -3 10 0 -10 -1z"/>
     </g>
     <path class="fil1 str1" d="M1448 1956c-141,22 -198,90 -256,220 -24,54 -30,192 -35,241 -29,9 -24,-94 -37,-94 -4,0 -21,-7 -31,1 -1,-109 -5,-303 104,-400 -100,33 -84,65 -141,131 27,-152 112,-248 247,-286 66,-86 -37,-96 -136,-130 177,-12 272,11 263,73 -5,-152 114,-203 186,-224 -87,72 -111,145 -95,227 42,-73 72,-91 169,-83 61,5 107,-26 133,-79 -1,2 38,150 -107,170 182,1 287,157 318,245 -41,-37 -83,-70 -141,-62 95,14 121,334 107,418 -19,-4 -69,-13 -70,56 -7,-119 7,-273 -105,-364 35,75 13,111 0,146 12,-125 -51,-222 -182,-259 54,48 60,141 20,207 -31,-143 -131,-167 -211,-154z"/>
     <path class="fil1 str2" d="M1346 2215c82,0 149,67 149,150 0,82 -67,149 -149,149 -83,0 -150,-67 -150,-149 0,-83 67,-150 150,-150z"/>
     <path class="fil1 str3" d="M1415 2232c32,17 56,44 70,77l-149 205c-37,-3 -70,-18 -95,-43l174 -239z"/>
     <path class="fil1 str2" d="M1745 2215c82,0 149,67 149,150 0,82 -67,149 -149,149 -83,0 -150,-67 -150,-149 0,-83 67,-150 150,-150z"/>
     <path class="fil1 str4" d="M1798 2225c33,13 60,36 77,67l-160 219c-35,-7 -65,-26 -87,-52l170 -234z"/>
     <path class="fil2 str5" d="M1545 2451c-12,48 -36,92 -73,130 5,46 100,56 147,21"/>
     <path class="fil2 str6" d="M1439 2747c55,43 133,45 213,0"/>
     <polyline class="fil2 str7" points="1468,1959 1429,2046 1488,2066 1442,2164 "/>
     <path class="fil2 str8" d="M1177 2575c-176,33 -174,-278 -57,-252"/>
     <path class="fil2 str9" d="M1913 2575c177,33 174,-278 57,-252"/>
     <line class="fil2 str10" x1="1500" y1="2348" x2="1592" y2= "2348" />
     <g>
      <path class="fil3" d="M1167 2357c-5,0 -9,-4 -9,-9 0,-5 4,-9 9,-9l0 18zm27 0l-27 0 0 -18 27 0 0 18zm0 -18c5,0 9,4 9,9 0,5 -4,9 -9,9l0 -18z"/>
     </g>
     <g>
      <path class="fil3" d="M1898 2357c-5,0 -9,-4 -9,-9 0,-5 4,-9 9,-9l0 18zm27 0l-27 0 0 -18 27 0 0 18zm0 -18c5,0 9,4 9,9 0,5 -4,9 -9,9l0 -18z"/>
     </g>
     <g id="_2584386149440">
      <path class="fil1 str11" d="M2063 2072c13,115 -6,221 14,322 13,68 15,96 -3,161 -9,32 -55,94 -107,170 -34,49 -110,108 -105,27 5,-79 22,-155 38,-232l-1 0c13,-105 0,-219 39,-317 4,-11 13,-17 24,-19 7,-41 14,-82 20,-123 8,-48 76,-32 81,11z"/>
      <path class="fil1 str12" d="M1899 2520l1 0c-16,77 -33,153 -38,232 -5,81 71,22 105,-27 52,-76 98,-138 107,-170 18,-65 16,-93 3,-161 -20,-101 -1,-207 -14,-322 -5,-43 -73,-59 -81,-11 -6,41 -13,82 -20,123 -11,2 -20,8 -24,19 -39,98 -26,212 -39,317z"/>
      <path class="fil2 str13" d="M1991 2504c14,-56 25,-119 13,-186 -8,-40 4,-74 -4,-115 -6,-26 -52,-26 -62,0 -39,98 -26,212 -39,317"/>
     </g>
     <g id="_2584386146496">
      <path class="fil1 str14" d="M1015 2072c-13,115 6,221 -14,322 -13,68 -15,96 4,161 9,32 54,94 106,170 34,49 111,108 106,27 -5,-79 -22,-155 -39,-232l2 0c-14,-105 -1,-219 -39,-317 -4,-11 -14,-17 -24,-19 -7,-41 -14,-82 -21,-123 -8,-48 -76,-32 -81,11z"/>
      <path class="fil1 str15" d="M1180 2520l-2 0c17,77 34,153 39,232 5,81 -72,22 -106,-27 -52,-76 -97,-138 -106,-170 -19,-65 -17,-93 -4,-161 20,-101 1,-207 14,-322 5,-43 73,-59 81,-11 7,41 14,82 21,123 10,2 20,8 24,19 38,98 25,212 39,317z"/>
      <path class="fil2 str16" d="M1087 2504c-13,-56 -25,-119 -13,-186 8,-40 -4,-74 5,-115 5,-26 52,-26 62,0 38,98 25,212 39,317"/>
     </g>
    </g>
    <g>
     <g>
      <path class="fil1" d="M2692 2739c1,2 1,3 2,4l-2 -4zm16 24c1,1 2,2 2,3l-2 -3zm3 3c1,1 2,2 3,4l-3 -4zm620 4c1,-2 2,-3 3,-4l-3 4zm3 -4c1,-1 2,-2 3,-4l-3 4zm48 -108c1,-4 1,-9 2,-13l-2 13zm2 -14c1,-3 1,-6 2,-9l-2 9zm9 -69l0 0c174,30 198,-296 82,-270l-197 -444 -604 125 -68 341 -9 -4c-116,-26 -119,282 54,252l0 0 1 3 0 2 0 2 0 3 0 0 1 3 0 2 0 2 1 3 0 0 0 3 0 2 0 1 1 4 0 0 0 3 0 2 1 1 0 4 0 0 0 3 1 2 0 1 0 3 0 1 1 4 0 2 1 3 0 1 0 3 1 1 0 2 0 3 1 0 0 5 1 2 0 3 0 0 1 3 0 2 1 2 0 2 0 1 1 3 0 1 1 2 1 3 0 0 0 4 1 0 0 2 1 2 0 2 0 0 1 3 0 1 0 0 1 3 1 2 1 4 0 0 1 4 1 1 0 1 1 3 0 0 1 3 0 0 1 2 0 1 1 2 1 1 0 1 1 3 1 1 1 3 0 1 1 0 1 3 1 1 1 4 1 0 0 1 1 3 1 1 0 0 2 3 0 0c1,2 1,3 2,4l0 1c1,1 2,2 3,3l0 0 0 1 2 3 1 1 2 3 0 0 0 1 2 2 1 1 3 3 0 0 0 1c1,1 2,2 2,3l1 0c1,1 2,2 3,4 78,86 188,130 308,168 121,-38 230,-82 309,-168 1,-2 2,-3 3,-4l0 0c1,-1 2,-2 3,-4l0 0c1,-1 2,-2 3,-3l0 -1 2 -2 1 -1 0 0 0 0 2 -3 1 -1 2 -3 0 -1 0 0 2 -3 1 -1 1 -3 1 -1 0 0 0 0 2 -4 0 0 2 -4 0 0 2 -4 0 0 2 -4 0 0 0 -1 2 -3 0 -1 2 -4 0 0 1 -3 1 -1 0 -2 0 0 1 -3 2 -4 0 -1 2 -4 0 0 0 0 1 -4 0 -1 1 -3 0 -1 1 -1 1 -4 0 0 1 -4 0 0 0 -1 1 -3 0 -1 1 -2 0 -3 1 -1 0 -3 0 -1 0 0 1 -4 0 0 1 -1c1,-4 1,-9 2,-13l0 -1c1,-3 1,-6 2,-9l0 -1 0 -2 1 -3 0 -1 0 -4 1 -2 0 -2 0 -1 1 -4 0 0 0 -3 0 -2 1 -5 0 0 1 -10 0 0 1 -5 0 -1 0 -3 0 -1 1 -3 0 -2 0 -1 0 -3 10 0 -10 -1z"/>
      <path id="1" class="fil2 str17" d="M2692 2739c1,2 1,3 2,4m14 20c1,1 2,2 2,3m1 0c1,1 2,2 3,4m617 0c1,-2 2,-3 3,-4m0 0c1,-1 2,-2 3,-4m45 -104c1,-4 1,-9 2,-13m0 -1c1,-3 1,-6 2,-9m7 -60l0 0c174,30 198,-296 82,-270l-197 -444 -604 125 -68 341 -9 -4c-116,-26 -119,282 54,252l0 0 1 3 0 2 0 2 0 3 0 0 1 3 0 2 0 2 1 3 0 0 0 3 0 2 0 1 1 4 0 0 0 3 0 2 1 1 0 4 0 0 0 3 1 2 0 1 0 3 0 1 1 4 0 2 1 3 0 1 0 3 1 1 0 2 0 3 1 0 0 5 1 2 0 3 0 0 1 3 0 2 1 2 0 2 0 1 1 3 0 1 1 2 1 3 0 0 0 4 1 0 0 2 1 2 0 2 0 0 1 3 0 1 0 0 1 3 1 2 1 4 0 0 1 4 1 1 0 1 1 3 0 0 1 3 0 0 1 2 0 1 1 2 1 1 0 1 1 3 1 1 1 3 0 1 1 0 1 3 1 1 1 4 1 0 0 1 1 3 1 1 0 0 2 3 0 0c1,2 1,3 2,4l0 1c1,1 2,2 3,3l0 0 0 1 2 3 1 1 2 3 0 0 0 1 2 2 1 1 3 3 0 0 0 1c1,1 2,2 2,3l1 0c1,1 2,2 3,4 78,86 188,130 308,168 121,-38 230,-82 309,-168 1,-2 2,-3 3,-4l0 0c1,-1 2,-2 3,-4l0 0c1,-1 2,-2 3,-3l0 -1 2 -2 1 -1 0 0 0 0 2 -3 1 -1 2 -3 0 -1 0 0 2 -3 1 -1 1 -3 1 -1 0 0 0 0 2 -4 0 0 2 -4 0 0 2 -4 0 0 2 -4 0 0 0 -1 2 -3 0 -1 2 -4 0 0 1 -3 1 -1 0 -2 0 0 1 -3 2 -4 0 -1 2 -4 0 0 0 0 1 -4 0 -1 1 -3 0 -1 1 -1 1 -4 0 0 1 -4 0 0 0 -1 1 -3 0 -1 1 -2 0 -3 1 -1 0 -3 0 -1 0 0 1 -4 0 0 1 -1c1,-4 1,-9 2,-13l0 -1c1,-3 1,-6 2,-9l0 -1 0 -2 1 -3 0 -1 0 -4 1 -2 0 -2 0 -1 1 -4 0 0 0 -3 0 -2 1 -5 0 0 1 -10 0 0 1 -5 0 -1 0 -3 0 -1 1 -3 0 -2 0 -1 0 -3 10 0 -10 -1z"/>
     </g>
     <path class="fil1 str18" d="M2926 1956c-142,22 -199,90 -257,220 -24,54 -30,192 -35,241 -29,9 -22,-8 -35,-8 -5,0 -21,-7 -31,0 -2,-108 -7,-388 102,-485 -100,33 -84,65 -141,131 27,-152 112,-248 247,-286 66,-86 -37,-96 -136,-130 178,-12 272,11 263,73 -5,-152 114,-203 186,-224 -87,72 -111,145 -95,227 42,-73 73,-91 169,-83 61,5 107,-26 133,-79 -1,2 39,150 -107,170 183,1 288,157 318,245 -41,-37 -82,-70 -141,-62 95,14 122,334 107,418 -15,102 -65,60 -70,56 -7,-119 7,-273 -105,-364 35,75 13,111 0,146 12,-125 -51,-222 -181,-259 53,48 59,141 19,207 -31,-143 -131,-167 -210,-154z"/>
     <path class="fil1 str2" d="M2823 2215c83,0 150,67 150,150 0,82 -67,149 -150,149 -83,0 -149,-67 -149,-149 0,-83 66,-150 149,-150z"/>
     <path class="fil1 str19" d="M2892 2232c32,17 56,44 70,77l-149 205c-37,-3 -70,-18 -95,-43l174 -239z"/>
     <path class="fil1 str2" d="M3222 2215c82,0 149,67 149,150 0,82 -67,149 -149,149 -83,0 -150,-67 -150,-149 0,-83 67,-150 150,-150z"/>
     <path class="fil1 str20" d="M3275 2225c33,13 60,36 77,67l-160 219c-35,-7 -65,-26 -87,-52l170 -234z"/>
     <path class="fil2 str21" d="M3022 2451c-12,48 -36,92 -73,130 5,46 100,56 147,21"/>
     <path class="fil2 str22" d="M2916 2747c56,43 133,45 213,0"/>
     <polyline class="fil2 str23" points="2945,1959 2906,2046 2965,2066 2919,2164 "/>
     <path class="fil2 str24" d="M2654 2575c-176,33 -220,-268 -103,-242"/>
     <path class="fil2 str25" d="M3391 2575c176,33 208,-242 91,-216"/>
     <line class="fil2 str26" x1="2977" y1="2348" x2="3069" y2= "2348" />
     <g>
      <path class="fil3" d="M2644 2357c-5,0 -9,-4 -9,-9 0,-5 4,-9 9,-9l0 18zm27 0l-27 0 0 -18 27 0 0 18zm0 -18c5,0 9,4 9,9 0,5 -4,9 -9,9l0 -18z"/>
     </g>
     <g>
      <path class="fil3" d="M3375 2357c-5,0 -9,-4 -9,-9 0,-5 4,-9 9,-9l0 18zm27 0l-27 0 0 -18 27 0 0 18zm0 -18c5,0 9,4 9,9 0,5 -4,9 -9,9l0 -18z"/>
     </g>
     <g>
      <path class="fil1 str27" d="M2861 2392l-96 0c50,-52 100,-103 140,-161 39,-55 6,-102 -56,-66 -106,62 -200,153 -269,223 0,-169 -102,-189 -111,-134 -9,53 -16,106 -19,161 -3,50 -16,98 -14,150 2,69 51,118 102,165 33,30 54,43 98,33 38,-8 124,-90 196,-162 75,-76 137,-161 166,-220 36,-72 17,-139 -33,-90l-104 101z"/>
      <path class="fil1" d="M2711 2410l80 74c65,-73 138,-141 193,-219 39,-56 -5,-116 -55,-67 -73,71 -146,142 -218,212z"/>
     </g>
     <path class="fil1 str28" d="M3180 2390l95 0c-49,-52 -99,-104 -139,-161 -39,-56 -6,-102 55,-67 107,62 201,153 270,224 -1,-169 102,-189 111,-135 9,54 16,107 19,161 3,50 16,99 14,150 -2,70 -51,118 -102,166 -33,30 -54,43 -98,33 -38,-9 -124,-90 -196,-162 -75,-76 -137,-161 -166,-220 -36,-72 -17,-140 33,-90l104 101z"/>
    </g>
    <g>
     <g>
      <path class="fil1" d="M4185 2763c1,1 2,2 3,3l-3 -3zm3 3c1,1 2,2 3,4l-3 -4zm620 4c1,-2 2,-3 3,-4l-3 4zm3 -4c1,-1 2,-2 3,-4l-3 4zm48 -108c1,-4 1,-9 2,-13l-2 13zm2 -14c1,-3 1,-6 2,-9l-2 9zm9 -69c174,30 168,-281 51,-255l-49 -192 -148 -252 -573 110 -68 341 -9 -4c-116,-26 -119,282 55,252l0 0 0 3 0 2 0 2 1 3 0 0 0 3 0 2 0 2 1 3 0 0 0 3 0 2 0 1 1 4 0 0 0 3 0 2 1 1 0 4 0 0 1 3 0 2 0 1 0 3 0 1 1 4 0 2 1 3 0 1 1 3 0 1 0 2 1 3 0 0 0 5 1 2 0 3 0 0 1 3 0 2 1 2 0 2 1 1 0 3 0 1 1 2 1 3 0 0 1 4 0 0 0 2 1 2 0 2 0 0 1 3 0 1 1 0 0 3 1 2 1 4 0 0 1 4 1 1 0 1 1 3 0 0 1 3 1 0 0 2 0 1 2 2 0 1 0 1 1 3 1 1 1 3 1 1 0 0 1 3 1 1 1 4 1 0 0 1 1 3 1 1 0 0 2 3 0 0c1,2 2,3 2,4l1 1 2 3 0 0 0 1 2 3 1 1c1,1 1,2 2,3l0 0 1 1 2 2 0 1 3 3 0 0 0 1c1,1 2,2 3,3l0 0c1,1 2,2 3,4 79,86 188,130 308,168 121,-38 230,-82 309,-168 1,-2 2,-3 3,-4l0 0 3 -4 0 0 3 -3 0 -1 2 -2 1 -1 0 0 0 0 2 -3 1 -1 2 -3 0 -1 0 0 2 -3 1 -1 2 -3 0 -1 0 0 0 0 2 -4 0 0 2 -4 0 0 2 -4 1 0 1 -4 0 0 1 -1 1 -3 0 -1 2 -4 0 0 1 -3 1 -1 0 -2 1 0 1 -3 1 -4 0 -1 2 -4 0 0 0 0 1 -4 0 -1 1 -3 1 -1 0 -1 1 -4 0 0 1 -4 0 0 0 -1 1 -3 0 -1 1 -2 0 -3 1 -1 0 -3 1 -1 0 0 1 -4 0 0 0 -1c1,-4 1,-9 2,-13l0 -1c1,-3 1,-6 2,-9l0 -1 0 -2 1 -3 0 -1 1 -4 0 -2 0 -2 0 -1 1 -4 0 0 0 -3 1 -2 0 -5 0 0 1 -10 0 0 1 -5 0 -1 0 -3 0 -1 1 -3 0 -2 0 -1 0 -3 10 0 -10 -1 0 0z"/>
      <path id="1" class="fil2 str29" d="M4185 2763c1,1 2,2 3,3m0 0c1,1 2,2 3,4m617 0c1,-2 2,-3 3,-4m0 0c1,-1 2,-2 3,-4m45 -104c1,-4 1,-9 2,-13m0 -1c1,-3 1,-6 2,-9m7 -60c174,30 168,-281 51,-255l-49 -192 -148 -252 -573 110 -68 341 -9 -4c-116,-26 -119,282 55,252l0 0 0 3 0 2 0 2 1 3 0 0 0 3 0 2 0 2 1 3 0 0 0 3 0 2 0 1 1 4 0 0 0 3 0 2 1 1 0 4 0 0 1 3 0 2 0 1 0 3 0 1 1 4 0 2 1 3 0 1 1 3 0 1 0 2 1 3 0 0 0 5 1 2 0 3 0 0 1 3 0 2 1 2 0 2 1 1 0 3 0 1 1 2 1 3 0 0 1 4 0 0 0 2 1 2 0 2 0 0 1 3 0 1 1 0 0 3 1 2 1 4 0 0 1 4 1 1 0 1 1 3 0 0 1 3 1 0 0 2 0 1 2 2 0 1 0 1 1 3 1 1 1 3 1 1 0 0 1 3 1 1 1 4 1 0 0 1 1 3 1 1 0 0 2 3 0 0c1,2 2,3 2,4l1 1 2 3 0 0 0 1 2 3 1 1c1,1 1,2 2,3l0 0 1 1 2 2 0 1 3 3 0 0 0 1c1,1 2,2 3,3l0 0c1,1 2,2 3,4 79,86 188,130 308,168 121,-38 230,-82 309,-168 1,-2 2,-3 3,-4l0 0 3 -4 0 0 3 -3 0 -1 2 -2 1 -1 0 0 0 0 2 -3 1 -1 2 -3 0 -1 0 0 2 -3 1 -1 2 -3 0 -1 0 0 0 0 2 -4 0 0 2 -4 0 0 2 -4 1 0 1 -4 0 0 1 -1 1 -3 0 -1 2 -4 0 0 1 -3 1 -1 0 -2 1 0 1 -3 1 -4 0 -1 2 -4 0 0 0 0 1 -4 0 -1 1 -3 1 -1 0 -1 1 -4 0 0 1 -4 0 0 0 -1 1 -3 0 -1 1 -2 0 -3 1 -1 0 -3 1 -1 0 0 1 -4 0 0 0 -1c1,-4 1,-9 2,-13l0 -1c1,-3 1,-6 2,-9l0 -1 0 -2 1 -3 0 -1 1 -4 0 -2 0 -2 0 -1 1 -4 0 0 0 -3 1 -2 0 -5 0 0 1 -10 0 0 1 -5 0 -1 0 -3 0 -1 1 -3 0 -2 0 -1 0 -3 10 0 -10 -1 0 0z"/>
     </g>
     <path class="fil1 str30" d="M4403 1956c-142,22 -199,90 -257,220 -24,54 -30,192 -35,241 -29,9 -23,-94 -36,-94 -5,0 -22,-7 -31,1 -2,-109 -5,-303 103,-400 -100,33 -84,65 -141,131 27,-152 112,-248 248,-286 65,-86 -38,-96 -137,-130 178,-12 273,11 263,73 -5,-152 115,-203 186,-224 -87,72 -110,145 -94,227 41,-73 72,-91 168,-83 61,5 107,-26 133,-79 -1,2 39,150 -107,170 183,1 288,157 318,245 -41,-37 -82,-70 -141,-62 95,14 122,334 108,418 -20,-4 -69,-13 -71,56 -7,-119 7,-273 -105,-364 35,75 13,111 0,146 13,-125 -51,-222 -181,-259 53,48 59,141 19,207 -31,-143 -131,-167 -210,-154z"/>
     <path class="fil1 str2" d="M4300 2215c83,0 150,67 150,150 0,82 -67,149 -150,149 -82,0 -149,-67 -149,-149 0,-83 67,-150 149,-150z"/>
     <path class="fil1 str31" d="M4369 2232c32,17 57,44 70,77l-149 205c-37,-3 -70,-18 -94,-43l173 -239z"/>
     <path class="fil1 str2" d="M4699 2215c82,0 149,67 149,150 0,82 -67,149 -149,149 -83,0 -150,-67 -150,-149 0,-83 67,-150 150,-150z"/>
     <path class="fil1 str32" d="M4752 2225c33,13 60,36 77,67l-160 219c-34,-7 -65,-26 -86,-52l169 -234z"/>
     <path class="fil2 str33" d="M4499 2451c-12,48 -36,92 -73,130 5,46 100,56 147,21"/>
     <path class="fil2 str34" d="M4393 2747c56,43 133,45 213,0"/>
     <polyline class="fil2 str35" points="4423,1959 4383,2046 4442,2066 4396,2164 "/>
     <path class="fil2 str36" d="M4131 2575c-176,33 -173,-278 -57,-252"/>
     <path class="fil2 str37" d="M4868 2575c176,33 173,-278 57,-252"/>
     <line class="fil2 str38" x1="4455" y1="2348" x2="4546" y2= "2348" />
     <g>
      <path class="fil3" d="M4121 2357c-5,0 -9,-4 -9,-9 0,-5 4,-9 9,-9l0 18zm28 0l-28 0 0 -18 28 0 0 18zm0 -18c4,0 8,4 8,9 0,5 -4,9 -8,9l0 -18z"/>
     </g>
     <g>
      <path class="fil3" d="M4852 2357c-5,0 -9,-4 -9,-9 0,-5 4,-9 9,-9l0 18zm27 0l-27 0 0 -18 27 0 0 18zm0 -18c5,0 9,4 9,9 0,5 -4,9 -9,9l0 -18z"/>
     </g>
     <g>
      <path class="fil1 str39" d="M4600 2767l65 -70c-71,0 -143,2 -212,-8 -68,-10 -79,-66 -11,-87 118,-35 249,-41 348,-43 -124,-115 -68,-203 -22,-173 45,30 88,62 130,97 39,32 83,56 119,92 49,50 51,118 50,188 0,45 -6,69 -42,94 -33,22 -151,29 -253,32 -107,2 -211,-11 -274,-30 -77,-23 -114,-83 -43,-86l145 -6z"/>
      <path class="fil1" d="M4716 2670l0 51 -1 58c-98,-3 -198,4 -292,-10 -68,-10 -82,-83 -11,-86 101,-4 203,-9 304,-13z"/>
      <path class="fil2 str40" d="M4716 2670c-101,4 -203,9 -304,13 -71,3 -57,76 11,86 94,14 194,7 292,10"/>
     </g>
    </g>
   </g>
   <g>
    <path class="fil4" d="M1103 3450c-84,0 -95,-54 -107,-54 -4,0 -10,7 -10,13 0,17 40,63 120,63 71,0 123,-37 123,-125 0,-177 -210,-94 -210,-227 0,-67 53,-83 100,-83 56,0 79,23 87,23 6,0 11,-8 11,-13 0,-15 -47,-33 -98,-33 -51,0 -122,18 -122,108 0,154 209,69 209,227 0,66 -36,101 -103,101zm207 7c0,7 5,11 11,11 6,0 11,-4 11,-11l0 -179 99 0c68,0 122,-35 122,-128l0 -8c0,-93 -54,-128 -122,-128l-110 0c-7,1 -11,5 -11,11l0 432zm121 -420c62,0 99,33 99,105l0 8c0,72 -37,106 -99,106l-99 0 0 -219 99 0zm314 435c68,0 122,-35 122,-128l0 -202c0,-93 -54,-128 -122,-128 -68,0 -121,35 -121,128l0 202c0,93 53,128 121,128zm99 -128c0,72 -37,106 -99,106 -62,0 -99,-34 -99,-106l0 -202c0,-72 37,-105 99,-105 62,0 99,33 99,105l0 202zm121 113c0,7 6,11 12,11 5,0 11,-4 11,-11l0 -432c0,-7 -6,-11 -11,-11 -6,0 -12,4 -12,11l0 432zm337 11c6,0 9,-5 9,-11 0,-6 -3,-11 -9,-11l-189 0 0 -421c0,-7 -5,-11 -11,-11 -6,0 -11,4 -11,11l0 432c0,7 5,11 11,11l200 0zm92 -431l210 0c6,0 10,-6 10,-12 0,-5 -3,-11 -10,-11l-221 0c-6,0 -12,4 -12,12l0 431c0,7 6,11 12,11l221 0c7,0 10,-5 10,-10 0,-7 -4,-12 -10,-12l-210 0 0 -194 99 0c7,0 11,-5 11,-10 0,-7 -4,-12 -11,-12l-99 0 0 -193zm286 420c0,7 6,11 12,11 5,0 11,-4 11,-11l0 -205 92 0 99 194c4,9 9,22 18,22 6,0 11,-5 11,-11 0,-2 0,-4 -2,-7l-102 -199c58,-7 104,-39 104,-118 0,-90 -59,-119 -128,-119l-103 0c-7,1 -12,5 -12,11l0 432zm115 -420c62,0 106,27 106,96 0,69 -44,97 -106,97l-92 0 0 -193 92 0z"/>
    <g>
     <path class="fil3" d="M3410 2978c6,-2 12,-5 19,-6 8,-1 15,-2 22,-1 7,0 13,2 19,6 6,3 10,9 12,17 4,9 4,18 2,28 -3,10 -8,19 -16,29 -8,9 -18,18 -31,27 -13,8 -27,16 -44,23 -18,8 -39,16 -62,23 1,14 3,29 7,45 3,16 8,33 15,51 6,-3 13,-6 20,-9 7,-3 14,-6 21,-9 9,-4 19,-8 29,-12 10,-4 20,-8 30,-11 3,-1 6,-1 8,0 3,1 4,3 5,6 1,3 1,5 0,8 -1,2 -3,4 -6,5 -10,4 -20,8 -29,12 -10,3 -20,7 -29,11 -8,3 -15,7 -22,10 -6,3 -13,6 -20,9 1,2 2,4 3,7 1,2 2,4 2,6 10,27 15,52 14,76 -1,95 -68,158 -162,164 -15,1 -28,0 -40,-3 -12,-2 -23,-6 -31,-10 -9,-4 -17,-9 -23,-14 -7,-5 -12,-9 -15,-13 -1,-1 -1,-1 -1,-1 0,-1 -1,-1 -1,-2 -1,-2 -1,-5 0,-8 2,-3 4,-5 7,-7 2,-1 4,-2 6,-2 2,0 3,1 5,3 3,4 7,8 13,12 6,5 12,9 20,12 8,4 17,7 28,9 10,2 22,3 36,2 118,-8 163,-106 125,-210 -1,-2 -2,-4 -3,-6 0,-2 -1,-4 -2,-6 -17,9 -33,17 -47,25 -14,7 -27,14 -37,20 -11,7 -19,12 -26,16 -6,4 -10,6 -12,7 -3,1 -6,1 -9,1 -2,0 -4,-2 -6,-5 0,-3 0,-5 1,-8 1,-2 2,-4 5,-6 0,0 3,-2 9,-6 6,-4 15,-9 26,-16 11,-6 24,-13 39,-21 15,-9 32,-17 50,-26 -14,-38 -21,-71 -23,-100 -20,6 -40,12 -61,17 -20,5 -45,11 -71,18l0 -20c25,-7 49,-13 69,-18 22,-6 43,-12 63,-18 0,-15 2,-30 8,-43 5,-14 13,-26 22,-38 9,-11 20,-21 32,-29 12,-9 24,-16 37,-21zm52 23c-1,-4 -4,-7 -7,-8 -4,-2 -8,-2 -12,-2 -5,0 -9,1 -14,2 -5,1 -9,3 -12,4 -8,4 -17,8 -27,14 -9,6 -18,14 -26,23 -9,8 -16,18 -22,30 -5,11 -9,24 -10,38 20,-6 38,-13 54,-20 13,-5 25,-12 36,-18 10,-7 19,-14 26,-21 6,-7 11,-15 14,-22 3,-7 3,-14 0,-20zm66 245c1,5 2,9 2,14 1,4 1,8 1,12 0,3 0,6 0,8 0,2 0,3 0,4 0,4 -2,7 -7,9 -2,1 -5,1 -7,0 -3,-1 -5,-3 -6,-6 0,-1 0,-2 0,-2 0,-1 0,-2 0,-4 0,-2 0,-5 0,-9 0,-4 -1,-10 -2,-18 -3,1 -6,2 -10,3 -3,1 -6,2 -9,2 -3,0 -6,-1 -8,-2 -3,-2 -5,-5 -6,-9 -1,-2 -2,-7 -2,-12 0,-6 0,-12 1,-18 1,-6 3,-11 5,-16 2,-5 5,-8 8,-9 4,-2 8,-2 12,0 3,2 6,5 9,9 3,3 6,7 8,12 2,4 4,8 6,12 3,-2 5,-3 8,-4 3,-1 6,-2 8,-3 10,-4 18,-4 25,-2 7,2 12,8 16,18 1,4 3,9 4,13 1,5 2,9 3,14 1,5 2,10 3,14 1,5 2,10 4,14 2,6 5,11 8,15 3,3 7,6 10,7 4,2 7,2 10,2 4,0 6,0 9,-1 7,-3 13,-7 18,-14 5,-8 9,-16 12,-24 3,-9 5,-18 7,-27 2,-9 3,-17 4,-24 0,-2 1,-3 2,-5 2,-1 3,-2 5,-3 3,-1 6,0 8,1 3,2 4,4 5,6 1,2 1,3 1,5 -2,9 -3,18 -5,29 -2,11 -5,21 -9,31 -4,10 -9,19 -16,27 -6,8 -15,14 -25,18 -6,2 -12,3 -19,2 -6,0 -12,-2 -18,-5 -6,-3 -11,-7 -15,-13 -5,-5 -9,-12 -12,-20 -3,-9 -5,-18 -7,-27 -1,-9 -4,-18 -6,-26 -1,-3 -3,-5 -5,-6 -2,-1 -6,-1 -11,1 -2,1 -5,2 -8,3 -3,1 -6,2 -9,4zm-24 -12c-1,-2 -1,-3 -2,-5 -1,-2 -2,-4 -3,-6 -1,-2 -2,-3 -2,-4 -1,-1 -2,-2 -3,-2 0,0 -1,1 -1,3 0,2 -1,3 -1,6 0,2 0,4 0,6 0,3 0,4 0,6 4,-1 8,-3 12,-4zm218 34c6,4 12,7 19,8 7,2 14,1 22,-1 9,-3 16,-7 22,-13 5,-6 10,-13 13,-21 3,-8 6,-17 7,-27 2,-9 3,-19 4,-28 0,-2 0,-4 2,-5 1,-2 3,-3 4,-3 3,-1 6,0 9,1 2,2 4,4 5,7 0,1 0,2 1,2 0,1 0,2 -1,2 -2,30 -8,54 -17,71 -10,18 -23,29 -41,34 -12,3 -22,4 -32,2 -10,-3 -19,-6 -27,-12 -8,-5 -15,-12 -21,-20 -6,-8 -10,-17 -13,-26 -4,-9 -5,-17 -6,-26 0,-8 0,-15 2,-22 2,-7 6,-13 10,-18 5,-5 10,-8 17,-11 4,-1 8,-1 13,-1 4,1 9,2 13,4 4,3 8,6 12,9 3,4 6,9 8,15 2,7 4,14 4,21 -1,7 -2,14 -4,21 -3,7 -6,13 -10,19 -4,7 -9,13 -15,18zm-14 -15c5,-4 9,-8 12,-13 3,-5 5,-10 7,-15 2,-5 2,-10 3,-16 0,-5 -1,-10 -3,-15 -2,-5 -5,-8 -8,-10 -4,-2 -7,-3 -11,-2 -5,2 -8,4 -10,8 -3,3 -4,8 -5,12 0,5 0,11 1,16 1,6 2,11 4,16 1,3 2,6 4,10 2,3 4,6 6,9zm151 -20c6,4 12,7 19,9 7,2 14,2 23,1 8,-2 15,-5 21,-11 5,-5 10,-12 13,-20 4,-8 6,-17 8,-26 1,-9 3,-18 3,-28 0,-2 1,-3 2,-5 1,-1 3,-2 5,-2 3,-1 6,0 8,2 3,2 5,4 6,7 0,1 0,2 0,2 0,1 0,2 0,2 -2,30 -8,53 -18,70 -9,16 -23,26 -41,30 -11,2 -22,1 -32,-2 -10,-2 -19,-7 -27,-13 -8,-6 -15,-13 -21,-22 -6,-8 -11,-17 -14,-26 -3,-9 -5,-18 -5,-26 -1,-8 0,-16 2,-23 2,-6 5,-12 10,-17 4,-4 10,-7 17,-9 4,-1 8,-1 13,0 4,1 9,3 13,5 4,3 8,6 12,10 3,4 6,9 8,15 3,7 4,15 4,22 0,7 -2,13 -4,20 -2,6 -6,13 -10,19 -4,5 -9,11 -15,16zm-14 -16c5,-4 9,-8 12,-12 3,-5 5,-10 7,-15 2,-5 2,-10 3,-15 0,-5 -1,-10 -3,-15 -2,-5 -5,-9 -8,-11 -4,-3 -7,-3 -11,-3 -5,1 -8,4 -11,7 -2,4 -3,8 -4,12 -1,5 0,10 0,16 1,6 3,11 5,16 1,3 2,7 4,10 2,4 4,7 6,10z"/>
     <path class="fil3" d="M3207 3158c-28,7 -57,18 -72,53 -3,7 -4,14 -3,21 1,6 3,12 6,17 2,5 5,9 8,12 3,3 4,4 4,5 2,1 3,2 3,4 0,1 0,3 -1,4 -1,3 -3,5 -6,6 -3,1 -6,1 -9,1 -2,-1 -4,-2 -5,-3 -4,-3 -8,-8 -12,-13 -3,-5 -6,-10 -8,-16 -3,-6 -4,-13 -4,-20 -1,-7 1,-14 4,-22 18,-42 55,-61 85,-67 8,8 21,15 10,18z"/>
    </g>
    <path class="fil4" d="M4215 3425l-112 -403c-1,-4 -7,-8 -12,-8 -5,0 -10,4 -10,10 0,2 0,2 0,4l123 435c1,6 6,9 11,9 5,0 10,-3 12,-9l67 -243 69 243c1,6 6,9 11,9 5,0 10,-3 12,-9l121 -435c0,-2 0,-2 0,-4 0,-6 -5,-10 -10,-10 -5,0 -11,4 -12,8l-111 403 -67 -239c-3,-9 -6,-11 -13,-11 -6,0 -11,2 -13,11l-66 239zm360 32c0,7 5,11 11,11 6,0 11,-4 11,-11l0 -432c0,-7 -5,-11 -11,-11 -6,0 -11,4 -11,11l0 432zm363 6c3,3 6,5 9,5 7,0 12,-5 12,-11 0,-2 0,-4 -2,-6l-160 -240 144 -179c1,-1 2,-4 2,-6 0,-6 -6,-12 -11,-12 -3,0 -7,2 -9,4l-200 250 0 -243c0,-7 -6,-11 -12,-11 -5,0 -11,4 -11,11l0 432c0,7 6,11 11,11 6,0 12,-4 12,-11l0 -153 59 -75 156 234zm78 -6c0,7 5,11 11,11 5,0 11,-4 11,-11l0 -432c0,-7 -6,-11 -11,-11 -6,0 -11,4 -11,11l0 432z"/>
   </g>
  </g>
  <path class="fil2 str41" d="M2711 2400c72,-70 145,-141 218,-212 50,-49 94,11 55,67 -55,78 -128,146 -193,219"/>
  <path class="fil1" d="M3330 2408l-80 74c-65,-74 -138,-141 -193,-220 -39,-55 5,-116 55,-66 73,70 146,141 218,212z"/>
  <path class="fil2 str42" d="M3330 2408c-72,-71 -145,-142 -218,-212 -50,-50 -94,11 -55,66 55,79 128,146 193,220"/>
 </g>
</svg>
